<?xml version="1.0" standalone="no"?><!DOCTYPE svg PUBLIC "-//W3C//DTD SVG 1.1//EN" "http://www.w3.org/Graphics/SVG/1.1/DTD/svg11.dtd"><svg t="1701240600367" class="icon" viewBox="0 0 1024 1024" version="1.1" xmlns="http://www.w3.org/2000/svg" p-id="1534" xmlns:xlink="http://www.w3.org/1999/xlink" width="200" height="200"><path d="M544 798.016l-128 0 0-224 128 0 0 224zM512 702.016l-64 0 0 64 64 0 0-64zM544 544l-64 0 0-64 64 0 0 64zM416 480l0-64 64 0 0 64-64 0zM416 288l64 0 0 64-64 0 0-64zM416 160l64 0 0 64-64 0 0-64zM544 224l0 64-64 0 0-64 64 0zM544 352l0 64-64 0 0-64 64 0zM160 960l0-864 480 0 0 63.712-416 0 0 736.576 544.576 0 0-608.288 63.424 0 0 672-672 0zM672 96l3.936 0 156.064 156.032 0 1.984-160 0 0-158.016z" fill="#444444" p-id="1535"></path></svg>